<svg width="484" height="400" xmlns="http://www.w3.org/2000/svg">
 <!-- Created with Method Draw - http://github.com/duopixel/Method-Draw/ -->

 <g>
  <title>background</title>
  <rect x="-1" y="-1" width="486" height="402" id="canvas_background" fill="#ffffff"/>
  <g id="canvasGrid" display="none">
   <rect id="svg_1" width="100%" height="100%" x="0" y="0" stroke-width="0" fill="url(#gridpattern)"/>
  </g>
 </g>
 <g>
  <title>Layer 1</title>
  <g transform="rotate(90 251.29652404785156,197.9998931884766) " id="svg_22" stroke="null">
   <g id="svg_5" transform="matrix(1.2019012660832373,0,0,1.2100696289611226,-738.1104333423871,-1473.1744000559183) " stroke="null">
    <path d="m792.5719,1339.2078l-11.375,-17.52701c3.724,-4.874 4.223,-11.729 0.714,-17.16699l-69.421,-107.002c-4.497,-6.925 -13.75,-8.9 -20.675,-4.403l-10.968,7.122c-6.925,4.491 -8.912,13.745 -4.415,20.681l69.398,106.997c3.532,5.426 9.992,7.755 15.964,6.35l11.363,17.515c-49.438,38.894 -61.95,109.756 -27.054,163.55c36.977,57.002 113.178,73.244 170.179,36.262c57.013,-36.971 73.244,-113.166 36.273,-170.178c-34.833,-53.656 -104.381,-71.183 -159.983,-42.2zm-98.869,-132.952c5.025,-3.259 11.735,-1.836 14.982,3.178c3.247,5.019 1.818,11.717 -3.201,14.977c-4.996,3.247 -11.706,1.818 -14.953,-3.201c-3.265,-4.997 -1.836,-11.707 3.172,-14.954z" id="svg_6" stroke="null"/>
   </g>
   <g id="svg_7" transform="matrix(1.2019012660832373,0,0,1.2100696289611226,-738.1104333423871,-1473.1744000559183) " stroke="null"/>
   <g id="svg_8" transform="matrix(1.2019012660832373,0,0,1.2100696289611226,-738.1104333423871,-1473.1744000559183) " stroke="null"/>
   <g id="svg_9" transform="matrix(1.2019012660832373,0,0,1.2100696289611226,-738.1104333423871,-1473.1744000559183) " stroke="null"/>
   <g id="svg_10" transform="matrix(1.2019012660832373,0,0,1.2100696289611226,-738.1104333423871,-1473.1744000559183) " stroke="null"/>
   <g id="svg_11" transform="matrix(1.2019012660832373,0,0,1.2100696289611226,-738.1104333423871,-1473.1744000559183) " stroke="null"/>
   <g id="svg_12" transform="matrix(1.2019012660832373,0,0,1.2100696289611226,-738.1104333423871,-1473.1744000559183) " stroke="null"/>
   <g id="svg_13" transform="matrix(1.2019012660832373,0,0,1.2100696289611226,-738.1104333423871,-1473.1744000559183) " stroke="null"/>
   <g id="svg_14" transform="matrix(1.2019012660832373,0,0,1.2100696289611226,-738.1104333423871,-1473.1744000559183) " stroke="null"/>
   <g id="svg_15" transform="matrix(1.2019012660832373,0,0,1.2100696289611226,-738.1104333423871,-1473.1744000559183) " stroke="null"/>
   <g id="svg_16" transform="matrix(1.2019012660832373,0,0,1.2100696289611226,-738.1104333423871,-1473.1744000559183) " stroke="null"/>
   <g id="svg_17" transform="matrix(1.2019012660832373,0,0,1.2100696289611226,-738.1104333423871,-1473.1744000559183) " stroke="null"/>
   <g id="svg_18" transform="matrix(1.2019012660832373,0,0,1.2100696289611226,-738.1104333423871,-1473.1744000559183) " stroke="null"/>
   <g id="svg_19" transform="matrix(1.2019012660832373,0,0,1.2100696289611226,-738.1104333423871,-1473.1744000559183) " stroke="null"/>
   <g id="svg_20" transform="matrix(1.2019012660832373,0,0,1.2100696289611226,-738.1104333423871,-1473.1744000559183) " stroke="null"/>
   <g id="svg_21" transform="matrix(1.2019012660832373,0,0,1.2100696289611226,-738.1104333423871,-1473.1744000559183) " stroke="null"/>
  </g>
  <text fill="#ffffff" stroke="#ffffff" stroke-width="0" x="102.5" y="318" id="svg_24" font-size="250" font-family="'Palatino Linotype', 'Book Antiqua', Palatino, serif" text-anchor="start" xml:space="preserve">B</text>
 </g>
</svg>