<?xml version="1.0" standalone="no"?>
<!DOCTYPE svg PUBLIC "-//W3C//DTD SVG 20010904//EN"
 "http://www.w3.org/TR/2001/REC-SVG-20010904/DTD/svg10.dtd">
<svg version="1.0" xmlns="http://www.w3.org/2000/svg"
 width="700.000000pt" height="700.000000pt" viewBox="0 0 700.000000 700.000000"
 preserveAspectRatio="xMidYMid meet">
<metadata>
Created by potrace 1.11, written by Peter Selinger 2001-2013
</metadata>
<g transform="translate(0.000000,700.000000) scale(0.100000,-0.100000)"
fill="#000000" stroke="none">
<path d="M3278 6996 c-1 -2 -39 -6 -83 -10 -114 -8 -255 -29 -420 -61 -75 -15
-301 -77 -405 -113 -809 -276 -1505 -856 -1923 -1603 -199 -357 -330 -726
-397 -1123 -22 -132 -24 -150 -37 -286 -15 -161 -8 -605 11 -707 2 -10 7 -43
10 -73 7 -62 12 -94 26 -165 6 -27 12 -59 14 -70 31 -163 115 -435 191 -620
42 -102 161 -344 200 -404 14 -23 25 -43 25 -46 0 -14 210 -314 286 -410 114
-142 388 -416 529 -529 387 -309 823 -531 1291 -656 117 -32 132 -35 189 -46
17 -3 48 -9 70 -14 38 -8 76 -14 161 -26 22 -3 53 -7 69 -9 189 -28 653 -27
845 1 507 74 920 213 1325 447 127 73 379 248 451 312 6 6 36 30 65 55 72 59
322 309 390 390 31 36 84 103 120 150 35 47 66 87 69 90 11 11 102 151 155
240 242 401 421 924 470 1375 4 33 9 71 11 85 9 48 11 525 4 605 -17 176 -22
220 -25 225 -2 3 -6 30 -10 60 -7 55 -58 298 -75 355 -142 480 -315 831 -594
1200 -33 44 -65 85 -71 91 -5 6 -35 41 -65 78 -89 108 -357 364 -485 464 -125
97 -337 242 -354 242 -5 0 -11 4 -13 8 -8 21 -315 176 -483 245 -231 95 -530
179 -760 213 -27 4 -57 9 -65 10 -8 2 -42 6 -76 9 -33 4 -74 9 -90 11 -33 5
-540 14 -546 10z m527 -270 c22 -3 65 -8 95 -11 57 -6 214 -32 240 -40 8 -2
31 -7 50 -10 58 -10 249 -62 340 -93 327 -112 639 -277 909 -480 64 -48 123
-93 132 -102 9 -8 47 -42 85 -75 609 -535 1009 -1338 1072 -2150 14 -177 6
-544 -14 -675 -72 -475 -203 -858 -422 -1230 -50 -84 -202 -308 -237 -349 -12
-14 -51 -60 -85 -101 -108 -131 -282 -303 -411 -407 -128 -103 -208 -163 -217
-163 -5 0 -15 -7 -22 -15 -18 -22 -261 -165 -385 -227 -241 -121 -544 -225
-795 -273 -63 -12 -138 -25 -175 -30 -22 -3 -49 -7 -60 -10 -89 -18 -517 -26
-685 -12 -457 38 -942 191 -1340 425 -81 47 -253 158 -285 184 -5 4 -48 38
-95 74 -104 81 -148 121 -267 236 -81 79 -119 119 -218 233 -53 61 -192 253
-254 350 -132 206 -262 482 -338 715 -32 100 -86 301 -97 365 -3 17 -8 41 -11
55 -7 35 -13 76 -21 129 -3 25 -8 57 -10 71 -25 151 -25 626 0 780 2 14 7 47
11 73 4 27 8 58 11 70 2 12 6 39 10 62 10 73 65 286 104 405 175 534 478 1004
897 1390 215 199 479 379 748 513 361 179 776 295 1160 323 44 4 82 8 84 10 5
5 449 -4 496 -10z"/>
<path d="M3210 6439 c-441 -47 -862 -187 -1235 -412 -85 -51 -299 -198 -315
-216 -3 -3 -32 -28 -65 -56 -82 -68 -270 -255 -342 -340 -278 -328 -498 -746
-604 -1150 -33 -127 -66 -288 -75 -372 -3 -32 -10 -89 -14 -128 -9 -74 -6
-522 3 -565 3 -14 8 -54 12 -90 26 -261 140 -635 279 -918 265 -538 724 -1010
1260 -1292 l116 -62 1 34 c1 18 2 49 4 68 1 19 6 107 10 195 4 88 9 178 10
200 1 22 5 108 9 190 4 83 9 175 11 205 3 30 7 107 10 170 3 63 8 153 10 200
3 47 7 132 10 190 3 58 7 157 10 221 l6 115 -43 13 c-24 6 -52 16 -63 20 -11
5 -51 21 -88 36 -100 41 -182 97 -273 189 -232 234 -367 598 -378 1016 -4 175
10 291 56 444 102 344 347 651 633 793 175 87 345 108 515 64 393 -101 732
-500 836 -982 20 -91 26 -384 11 -509 -22 -180 -77 -365 -157 -527 -66 -134
-132 -226 -232 -323 -88 -85 -185 -143 -328 -195 l-115 -42 1 -44 c1 -24 5
-114 9 -199 4 -85 9 -180 10 -210 1 -30 6 -113 10 -185 4 -71 8 -159 10 -195
11 -219 16 -314 20 -385 3 -44 7 -132 10 -195 3 -63 7 -142 10 -175 2 -33 7
-127 11 -210 6 -141 10 -185 16 -190 4 -3 263 -53 311 -60 116 -16 192 -20
387 -20 270 0 371 10 592 56 82 17 338 85 344 92 2 1 6 56 9 122 3 66 8 148
10 183 2 34 7 124 10 200 3 75 8 164 10 197 2 33 6 114 10 180 6 134 12 245
20 385 2 52 8 149 11 215 4 66 7 157 8 203 l1 83 -85 28 c-179 61 -342 180
-456 334 -40 54 -47 72 -69 192 -6 32 -6 441 -1 535 2 30 7 107 10 170 4 63 9
131 11 150 2 19 7 73 10 120 4 47 8 99 10 115 1 17 6 64 9 105 4 41 9 91 11
110 4 32 17 162 31 300 3 30 7 64 9 76 2 11 6 52 10 90 4 38 9 77 11 88 2 10
6 51 10 90 3 39 8 73 10 77 1 3 6 39 9 80 4 40 11 79 17 84 5 6 47 10 93 10
l85 1 0 -186 c0 -102 1 -549 1 -993 l0 -808 92 3 92 3 0 990 0 990 100 0 100
0 0 -990 0 -990 90 0 90 0 1 975 c1 536 2 982 3 992 1 14 14 16 102 14 l101
-1 0 -993 0 -993 91 3 92 3 0 990 0 990 70 0 70 0 17 -130 c9 -71 19 -157 23
-190 3 -33 8 -71 10 -85 4 -25 11 -85 20 -182 7 -72 16 -148 20 -167 1 -9 6
-54 10 -101 4 -47 8 -98 10 -115 2 -16 7 -64 10 -105 4 -41 8 -91 10 -110 2
-19 6 -78 10 -130 3 -52 8 -111 10 -130 11 -100 19 -349 18 -535 -1 -314 -16
-365 -150 -502 -118 -121 -226 -189 -381 -243 l-92 -33 5 -81 c3 -44 7 -126
10 -181 3 -55 7 -140 10 -190 9 -161 15 -278 20 -390 3 -60 7 -146 10 -190 5
-77 10 -186 20 -384 2 -51 6 -95 8 -97 2 -3 64 36 138 85 461 306 806 702
1044 1195 77 161 170 414 190 518 2 11 7 28 10 38 3 10 8 27 10 37 2 10 10 50
19 88 16 76 41 259 51 370 6 77 7 367 0 430 -2 22 -7 67 -10 100 -5 54 -26
194 -40 270 -4 17 -17 74 -31 128 -133 528 -391 983 -774 1368 -253 254 -499
429 -817 581 -125 60 -346 148 -370 148 -7 0 -21 4 -31 9 -41 23 -360 94 -476
106 -31 4 -67 9 -79 12 -39 9 -520 11 -607 2z"/>
<path d="M1841 4342 c-107 -168 -168 -386 -169 -607 0 -118 9 -164 60 -310 77
-221 168 -353 323 -470 86 -64 130 -87 158 -83 34 5 31 33 -6 75 -65 73 -148
203 -186 290 -58 133 -140 380 -149 451 -9 63 -8 340 1 397 3 17 8 50 12 75 3
25 15 78 26 118 23 82 19 112 -16 112 -17 0 -31 -13 -54 -48z"/>
</g>
</svg>
